<svg xmlns="http://www.w3.org/2000/svg"
shape-rendering="geometricPrecision"
width="4000" height="4000" viewBox="0 0 1024 1024"><rect width="100%" height="100%" fill="#F3F0E9" />
  <metadata>null</metadata>

<path d="
M 119.498 592.102
C 121.064 582.443 126.887 572.928 137.525 571.824
C 139.77 571.591 142.035 572.018 144.223 572.461
C 145.444 572.708 147.038 573.347 148.276 572.916
C 152.932 571.294 155.881 564.209 157.802 560.149
C 164.69 545.599 168.543 529.476 173.152 514.106
C 178.992 494.634 184.942 475.193 190.732 455.708
C 194.457 443.169 197.784 430.266 202.29 417.991
C 200.914 417.38 198.645 417.496 197.126 417.271
C 193.608 416.75 190.061 416.149 186.649 415.124
C 176.247 411.998 166.049 407.052 158.74 398.807
C 156.433 396.203 154.953 393.231 153.062 390.365
C 142.191 381.95 131.593 367.565 137.902 353.157
C 138.885 350.913 140.265 348.918 141.875 347.077
C 143.791 344.883 146.395 343.154 149.029 341.932
C 157.102 338.189 166.913 339.488 173.224 345.932
C 175.929 348.694 177.086 352.723 180.355 354.945
C 185.008 358.108 190.78 358.376 196.161 359.06
C 204.71 360.147 214.526 358.315 222.67 355.789
C 231.288 353.115 239.028 349.582 248.26 349.68
C 255.559 349.757 263.205 352.005 268.466 357.29
C 270.598 359.432 271.69 362.237 273.599 364.477
C 274.694 365.762 277.034 366.571 278.465 367.496
C 281.176 369.247 283.553 371.386 285.428 374.03
C 291.558 382.669 291.156 391.697 290.809 401.779
C 290.611 407.51 290.698 413.318 290.067 419.016
C 290.559 418.786 290.725 418.079 290.955 417.634
C 291.652 416.281 292.27 414.887 292.962 413.529
C 295.656 408.24 298.211 402.858 301.025 397.631
C 305.697 388.949 309.955 380.054 314.416 371.263
C 317.315 365.551 320.013 359.602 324.561 354.977
C 331.486 347.935 341.403 344.994 351.102 345.379
C 355.896 345.569 360.536 346.484 365.094 347.943
C 369.669 349.409 374.363 352.299 377.359 356.089
C 378.688 357.771 379.348 360.246 380.779 361.732
C 382.276 362.653 384.011 363.197 385.547 364.089
C 388.769 365.963 391.627 368.657 393.723 371.737
C 396.984 376.526 398.708 382.454 398.203 388.248
C 397.778 393.112 396.141 397.836 394.869 402.522
C 392.086 412.779 389.112 422.986 386.306 433.24
C 384.984 438.069 383.306 442.893 382.242 447.77
C 382.485 448.356 383.262 447.228 383.544 446.979
C 384.854 445.825 386.176 444.717 387.588 443.687
C 391.375 440.926 395.268 438.674 399.515 436.704
C 407.775 432.872 417.352 431.866 426.257 433.633
C 429.169 434.211 431.655 435.536 434.442 436.369
C 436.509 434.988 438.331 433.574 440.677 432.657
C 449.179 429.334 461.146 429.757 468.041 436.324
C 469.791 437.991 471.023 440.37 471.748 442.663
C 472.042 443.595 471.943 444.646 472.517 445.452
C 473.596 446.142 474.72 446.915 475.955 447.278
C 476.151 446.681 475.381 445.377 475.199 444.78
C 474.628 442.906 474.072 441.033 473.862 439.077
C 473.235 433.256 473.927 427.334 476.032 421.868
C 482.057 406.219 501.03 396.805 516.523 405.043
C 519.852 406.813 523.13 409.577 525.205 412.746
C 526.356 414.504 526.874 416.734 528.102 418.393
C 530.916 420.531 534.046 421.926 536.614 424.507
C 538.877 426.781 540.024 429.546 541.708 432.187
C 544.001 433.06 546.566 433.189 548.897 434.089
C 553.633 435.917 558.384 438.721 561.55 442.763
C 563.307 445.008 564.362 447.38 565.606 449.898
C 567.048 451.372 569.499 452.132 571.201 453.358
C 572.901 454.581 574.174 456.493 575.949 457.55
C 577.432 455.757 577.815 451.895 578.567 449.675
C 580.754 443.214 582.627 436.642 584.699 430.143
C 590.47 412.047 595.866 393.824 601.672 375.739
C 603.292 370.694 604.824 365.621 606.424 360.568
C 607.454 357.315 608.239 353.988 610.052 351.052
C 617.044 339.727 636.973 338.382 646.681 346.865
C 650.076 349.831 650.841 353.351 652.059 357.415
C 655.152 359.124 658.186 360.3 660.617 363.008
C 667.257 370.402 666.52 379.477 663.962 388.355
C 662.439 393.644 660.992 398.962 659.366 404.221
C 658.156 408.135 656.688 412.205 656.015 416.247
C 664.931 417.627 672.945 421.99 678.577 429.102
C 680.887 432.019 682.403 435.344 684.346 438.483
C 686.3 441.638 689.081 444.876 691.469 447.718
C 692.119 447.239 692.442 445.885 692.799 445.159
C 693.584 443.561 694.497 442.009 695.422 440.489
C 698.644 435.194 702.177 430.023 706.529 425.581
C 719.376 412.469 734.977 402.937 753.578 401.189
C 761.631 400.433 770.493 401.057 777.899 404.604
C 782.319 406.721 785.979 409.454 789.528 412.793
C 789.753 412.694 789.455 411.429 789.42 411.171
C 789.205 409.601 789.221 408.043 789.446 406.474
C 790.042 402.326 791.924 398.193 794.767 395.086
C 798.794 390.684 804.516 388.897 810.258 388.215
C 812.46 387.953 815.881 388.347 817.867 387.488
C 818.478 386.512 818.662 385.22 819.047 384.137
C 820.129 381.094 821.12 378.02 822.109 374.948
C 824.496 367.535 827.004 360.158 829.399 352.746
C 830.997 347.8 832.103 342.548 835.759 338.633
C 844.416 329.366 864.25 329.171 872.185 339.619
C 874.173 342.236 874.84 344.878 875.384 348.03
C 877.806 350.036 880.689 351.22 882.968 353.535
C 888.78 359.436 889.765 367.593 888.12 375.411
C 887.512 378.298 886.596 381.178 885.573 383.942
C 885.077 385.281 884.145 386.658 884.142 388.102
C 885.988 391.259 887.178 393.764 887.866 397.374
C 891.065 399.861 894.608 401.03 897.025 404.598
C 904.08 415.012 901.67 431.349 890.392 437.98
C 885.865 440.642 880.713 441.72 875.539 442.296
C 872.623 442.621 869.315 442.503 866.5 443.309
C 864.075 449.156 862.448 455.588 860.795 461.681
C 860.954 461.85 861.386 461.459 861.464 461.389
C 862.295 460.647 863.076 459.962 863.992 459.304
C 866.164 457.746 868.671 456.852 871.284 456.375
C 880.081 454.768 890.799 457.486 895.194 466.009
C 896.31 468.172 896.787 470.22 897.162 472.601
C 900.3 474.91 903.203 476.534 905.469 479.868
C 913.864 492.22 907.806 508.834 900.841 520.299
C 887.496 542.27 863.475 561.2 836.806 561.443
C 826.954 561.533 814.273 558.773 807.415 551.057
C 805.203 551.987 803.241 553.815 801.196 555.079
C 797.34 557.462 793.401 559.791 789.285 561.706
C 770.584 570.408 748.442 573.52 728.369 567.998
C 722.965 566.512 717.801 564.247 713.158 561.088
C 711.574 560.01 710.108 558.82 708.649 557.583
C 708.051 557.075 707.256 556.053 706.566 555.83
C 703.286 559.756 698.262 562.853 694.035 565.664
C 678.984 575.67 659.692 581.726 641.839 576.387
C 634.048 574.057 627.332 569.429 623.055 562.443
C 622.161 560.982 621.581 559.225 620.561 557.858
C 619.471 556.395 617.644 555.397 616.239 554.255
C 615.781 553.883 614.083 551.913 613.643 552.393
C 612.516 556.346 610.867 560.147 609.547 564.037
C 607.467 570.166 605.408 576.797 600.419 581.255
C 596.412 584.836 590.808 586.44 585.537 586.733
C 582.07 586.926 578.694 586.406 575.376 585.429
C 573.854 584.98 571.988 583.729 570.47 583.666
C 556.476 590.675 535.912 588.902 525.502 576.375
C 524.214 574.826 523.167 573.126 522.243 571.339
C 521.737 570.362 521.53 569.044 520.798 568.208
C 519.733 566.993 518.006 566.2 516.701 565.268
C 514.835 563.935 513.061 562.338 511.519 560.647
C 510.441 559.466 509.51 558.167 508.746 556.763
C 508.228 555.81 507.963 554.783 506.844 554.598
C 496.109 573.23 480.155 593.211 456.99 595.127
C 453.429 595.421 449.898 595.141 446.382 594.556
C 440.966 593.655 435.229 591.686 430.988 588.087
C 429.424 588.868 428.202 590.343 426.774 591.354
C 424.024 593.3 421.213 595.064 418.191 596.56
C 405.746 602.718 390.636 603.345 378.083 597.127
C 373.312 594.764 368.719 590.92 365.784 586.469
C 364.504 584.528 363.729 581.75 362.229 580.053
C 360.648 578.263 358.31 577.127 356.59 575.439
C 354.89 573.772 353.47 571.961 352.103 570.017
C 351.717 569.468 351.106 567.931 350.516 568.214
C 350.334 574.368 348.953 580.4 348.941 586.6
C 348.938 588.24 348.695 592.162 349.845 593.311
C 355.731 595.774 360.542 598.862 363.695 604.638
C 369.702 615.643 365.494 631.531 353.841 637.026
C 342.701 642.278 326.424 639.444 317.339 631.182
C 314.834 628.904 312.736 626.352 310.93 623.49
C 310.029 622.06 309.394 620.119 308.284 618.871
C 306.129 616.446 302.837 614.836 300.506 612.466
C 295.933 607.818 292.79 601.237 291.08 595.002
C 289.061 587.639 288.413 580.106 288.429 572.489
C 288.436 569.625 289.293 566.552 289.004 563.733
C 288.488 563.636 288.137 564.328 287.886 564.721
C 287.156 565.862 286.586 567.157 285.976 568.365
C 283.62 573.032 281.317 578.698 277.422 582.296
C 268.632 590.414 251.041 589.979 242.641 581.359
C 240.769 579.439 239.373 576.943 238.494 574.418
C 238.157 573.449 238.228 571.684 237.619 570.916
C 234.514 569.991 231.608 568.758 229.375 566.326
C 228.209 565.056 226.867 561.65 225.384 561.078
C 224.27 567.988 221.114 574.895 218.782 581.47
C 212.278 599.808 201.516 620.217 182.89 628.553
C 171.246 633.765 157.198 634.069 145.468 628.891
C 138.952 626.014 133.316 621.063 132.16 613.735
C 129.751 612.373 127.176 611.284 125.122 609.37
C 120.483 605.048 118.79 598.238 119.498 592.102 Z
M 131.937 593.087
C 130.258 602.543 141.66 603.976 148.454 604.063
C 149.889 604.081 151.321 604.05 152.751 603.913
C 168.126 602.441 177.817 590.503 184.511 577.7
C 193.288 560.914 197.883 542.02 203.411 524.019
C 211.605 497.339 219.203 470.48 227.172 443.732
C 230.744 431.744 234.06 419.68 237.718 407.715
C 238.555 404.976 239.453 402.23 240.214 399.471
C 240.943 396.824 241.434 394.185 243.253 392.039
C 244.055 392.153 244.653 392.317 245.236 392.892
C 245.614 393.963 245.326 395.367 245.292 396.489
C 245.214 398.988 245.016 401.477 244.901 403.966
C 244.492 412.843 244.121 421.711 243.411 430.569
C 242.319 444.18 241.924 457.847 241.073 471.476
C 240.099 487.063 238.877 502.666 238.281 518.28
C 237.904 528.185 237.216 538.074 236.818 547.966
C 236.639 552.42 236.442 557.033 241.221 559.176
C 244.732 560.75 250.906 560.569 253.706 557.685
C 256.024 555.298 257.267 551.448 258.708 548.493
C 261.616 542.532 264.525 536.55 267.569 530.658
C 286.408 494.192 304.58 457.378 323.288 420.842
C 328.766 410.143 334.435 399.53 340.007 388.878
C 341.252 386.498 342.469 383.916 344.144 381.807
C 345.001 380.729 346.181 379.925 347.495 380.784
C 348.249 381.785 347.72 383.022 347.402 384.114
C 346.585 386.921 345.788 389.735 344.953 392.537
C 341.476 404.192 338.021 415.864 334.596 427.534
C 326.92 453.686 319.483 479.939 312.662 506.326
C 309.021 520.409 306.012 534.527 303.556 548.863
C 302.616 554.354 301.615 559.955 301.328 565.521
C 300.509 581.369 301.16 603.584 319.118 609.982
C 321.485 610.825 324.01 611.436 326.526 611.557
C 328.847 611.669 331.199 611.539 333.305 610.447
C 337.954 608.035 339.963 602.036 337.074 597.478
C 334.941 594.113 330.255 594.837 327.083 593.048
C 322.889 590.683 321.233 584.803 320.722 580.363
C 319.491 569.664 321.201 558.77 323.122 548.248
C 325.405 535.739 328.224 523.351 331.32 511.021
C 340.856 473.045 352.453 435.646 362.993 397.95
C 364.476 392.644 365.996 387.324 367.605 382.055
C 369.595 375.536 371.918 367.852 365.693 362.788
C 364.519 361.833 363.145 361.141 361.753 360.561
C 359.293 359.537 356.531 358.972 353.902 358.582
C 347.432 357.621 339.43 358.876 334.446 363.397
C 331.726 365.864 329.995 369.073 328.28 372.269
C 326.002 376.515 323.842 380.82 321.612 385.091
C 305.251 416.43 289.365 448.129 273.883 479.91
C 269.862 488.165 265.636 496.351 261.373 504.484
C 260.232 506.66 259.213 508.906 258.005 511.041
C 257.572 511.806 257.361 512.565 256.474 512.882
C 255.957 509.823 256.676 506.276 256.755 503.175
C 256.964 494.956 257.671 486.757 258.108 478.551
C 259.345 455.315 260.518 432.081 261.689 408.84
C 262.107 400.537 262.548 392.232 262.877 383.924
C 263.065 379.17 263.796 374.332 261.51 369.939
C 258.225 363.626 249.968 361.965 243.466 362.876
C 238.097 363.627 233.252 365.996 228.103 367.533
C 218.261 370.47 207.362 372.85 197.017 372.074
C 188.478 371.434 178.919 370.369 171.868 364.976
C 169.727 363.338 167.858 361.483 166.358 359.242
C 164.935 357.115 164.033 354.604 161.527 353.509
C 156.684 351.393 150.892 354.423 149.021 359.143
C 147.983 361.76 148.653 364.449 149.571 366.993
C 151.795 373.156 156.946 378.288 162.547 381.474
C 181.509 392.262 204.33 389.912 224.806 385.977
C 224.387 389.46 222.948 392.986 221.968 396.355
C 220.248 402.265 218.352 408.116 216.59 414.012
C 211.138 432.253 205.618 450.469 199.981 468.653
C 194.221 487.234 188.836 505.932 183.107 524.523
C 178.298 540.131 174.355 556.179 166.739 570.73
C 163.379 577.15 158.5 583.575 151.233 585.664
C 148.985 586.31 146.498 586.338 144.215 585.868
C 142.648 585.545 141.092 584.736 139.467 584.807
C 136.776 584.924 134.64 587.069 133.38 589.257
C 132.676 590.481 132.366 591.756 131.937 593.087 Z
M 146.091 616.245
C 149.303 619.416 154.948 620.444 159.274 620.898
C 174.809 622.529 187.035 613.817 195.695 601.686
C 205.99 587.264 211.327 569.284 216.258 552.487
C 218.267 545.644 220.481 538.867 222.586 532.054
C 223.61 528.742 224.944 525.319 225.604 521.917
C 226.198 518.86 226.123 515.616 226.336 512.514
C 226.676 507.576 227.093 502.645 227.429 497.706
C 227.773 492.657 228.96 487.308 228.589 482.258
C 226.456 487.917 225.293 493.988 223.578 499.79
C 218.456 517.11 213.492 534.501 207.834 551.655
C 203.774 563.966 199.652 576.236 193.219 587.559
C 183.711 604.292 166.793 619.322 146.091 616.245 Z
M 177.244 399.345
C 178.89 401.137 182.19 402.223 184.473 402.97
C 191.522 405.277 198.607 406.288 205.973 406.926
C 206.484 405.632 206.644 404.155 207.076 402.822
C 207.154 402.579 207.836 400.958 207.702 400.931
C 199.496 402.987 189.776 401.383 181.531 400.232
C 180.081 400.029 178.716 399.464 177.244 399.345 Z
M 250.413 572.327
C 255.153 578.143 266.504 578.02 270.809 571.721
C 275.096 565.449 277.786 557.872 281.248 551.123
C 284.529 544.727 287.814 538.341 290.993 531.892
C 292.676 528.479 294.644 525.101 295.906 521.501
C 297.044 518.255 297.625 514.827 298.434 511.491
C 299.969 505.161 301.428 498.701 303.423 492.5
C 304.239 489.966 304.923 487.396 305.724 484.861
C 305.846 484.476 306.497 482.461 305.876 482.673
C 295.603 502.137 285.934 521.948 275.821 541.508
C 272.697 547.55 269.697 553.651 266.484 559.648
C 264.817 562.761 263.349 566.13 260.479 568.346
C 257.472 570.67 253.816 570.933 250.413 572.327 Z
M 271.478 451.123
C 271.291 453.059 271.476 455.02 271.331 456.943
C 272.591 455.829 273.237 453.407 274.014 451.924
C 275.309 449.451 277.547 446.595 278.265 443.923
C 279.002 441.178 278.686 437.797 278.793 434.966
C 279.25 422.817 279.627 410.651 280.192 398.506
C 280.533 391.173 280.768 384.418 274.837 379.246
C 275.338 383.438 274.674 387.969 274.486 392.187
C 274.17 399.296 273.944 406.414 273.453 413.508
C 272.925 421.128 272.588 428.822 272.296 436.455
C 272.11 441.305 272.189 446.315 271.478 451.123 Z
M 326.547 623.688
C 327.861 625.129 330.073 625.933 331.883 626.656
C 338.88 629.449 349.541 628.739 353.464 621.359
C 355.487 617.553 355.59 613.196 353.298 609.488
C 352.578 608.324 351.439 606.629 350.017 606.326
C 348.959 609.605 347.921 612.967 345.804 615.746
C 341.622 621.235 333.444 624.811 326.547 623.688 Z
M 332.968 567.622
C 332.648 571.341 332.165 576.087 333.508 579.651
C 334.059 581.114 336.371 583.149 338.076 582.772
C 338.679 575.175 339.474 567.689 340.982 560.199
C 342.026 555.015 343.654 549.725 344.328 544.493
C 344.76 541.143 344.284 537.662 344.467 534.286
C 344.853 527.17 345.863 519.956 347.666 513.055
C 349.616 505.586 351.887 498.144 354.963 491.054
C 357.322 485.617 360.585 480.386 362.48 474.774
C 367.629 459.529 371.173 443.665 375.832 428.258
C 379.494 416.146 382.799 403.89 386.162 391.687
C 387.592 386.498 387.405 379.895 382.548 376.345
C 382.352 376.202 382.128 375.814 381.932 375.956
C 381.499 376.27 381.704 377 381.575 377.518
C 381.137 379.284 380.769 381.067 380.298 382.826
C 379.064 387.444 377.732 392.068 376.246 396.613
C 371.656 410.661 368.02 425.155 363.966 439.371
C 355.677 468.437 346.491 497.489 339.964 527.013
C 337.914 536.29 335.815 545.591 334.396 554.991
C 333.767 559.157 333.734 563.501 332.968 567.622 Z
M 356.967 533.115
C 355.239 548.182 359.19 568.571 376.485 572.126
C 379.748 572.797 383.211 572.975 386.528 572.662
C 390.301 572.305 394.096 571.434 397.594 569.962
C 402.931 567.718 407.685 564.149 411.689 559.995
C 413.008 558.626 414.251 557.177 415.461 555.714
C 416.188 554.836 416.812 553.829 417.982 553.607
C 420.003 556.828 421.449 559.984 424.616 562.368
C 438.391 572.737 456.66 564.249 466.995 553.381
C 474.611 545.372 479.904 535.376 484.69 525.507
C 492.108 510.213 498.055 494.274 504.148 478.419
C 505.875 473.925 507.543 469.386 509.128 464.84
C 509.987 462.375 510.56 459.587 511.874 457.326
C 516.032 458.005 520.022 459.65 524.117 460.568
C 527.441 461.313 531.94 462.015 534.642 464.213
C 535.574 466.052 533.71 469.147 533.087 470.907
C 530.945 476.952 528.986 483.067 526.848 489.116
C 524.778 494.971 522.909 500.888 520.897 506.762
C 517.174 517.632 513.864 528.407 515.481 540.009
C 515.844 542.616 516.667 545.133 517.81 547.498
C 518.743 549.427 519.987 551.291 521.457 552.852
C 532.042 564.085 549.631 558.672 560.266 550.687
C 560.641 550.983 560.348 552.798 560.495 553.41
C 560.854 554.905 562.18 556.064 563.502 556.74
C 567.366 558.713 575.197 558.599 578.006 554.766
C 579.837 552.268 580.3 548.468 581.243 545.564
C 583.331 539.139 585.368 532.7 587.39 526.253
C 589.591 519.235 592.1 512.316 594.342 505.311
C 596.825 497.551 599.092 489.664 602.942 482.437
C 607.461 473.954 613.524 466.039 620.506 459.437
C 627.436 452.884 636.221 445.728 646.376 446.32
C 651.896 446.642 653.695 450.506 653.401 455.505
C 653.041 461.631 649.495 467.51 645.806 472.212
C 640.258 479.283 632.72 483.757 624.691 487.461
C 617.842 490.62 610.067 492.938 607.828 501.151
C 606.521 505.946 608.454 511.763 609.662 516.416
C 610.774 520.7 612.14 524.915 613.964 528.954
C 616.352 534.242 619.441 539.53 623.967 543.276
C 637.419 554.413 657.002 548.203 670.446 540.522
C 673.267 538.91 676.029 537.17 678.603 535.18
C 683.049 531.742 687.285 528.156 691.199 524.108
C 692.593 522.666 694.568 519.171 696.482 518.662
C 704.48 540.741 732.071 543.581 752.152 539.47
C 755.696 538.745 759.202 537.849 762.626 536.671
C 767.094 535.133 771.342 533.247 775.517 531.037
C 781.192 528.033 786.178 524.26 791.223 520.332
C 792.759 519.136 794.102 517.744 795.529 516.43
C 795.839 516.144 796.373 515.424 796.789 515.377
C 797.965 518.791 799.702 522.178 802.202 524.816
C 809.378 532.39 821.226 533.92 831.033 531.809
C 850.281 527.667 866.639 513.419 875.987 496.401
C 878.784 491.31 881.328 486.095 883.109 480.552
C 883.851 478.244 884.725 476.029 884.085 473.57
C 882.467 467.35 872.35 467.45 868.976 472.014
C 866.229 475.729 865.285 481.003 863.165 485.11
C 857.245 496.584 848.476 507.674 836.249 512.77
C 831.412 514.785 824.504 516.279 819.818 513.138
C 811.539 507.588 815.625 495.209 818.011 487.713
C 823.104 471.715 828.031 455.615 833.596 439.778
C 836.441 431.683 838.06 422.796 841.579 414.982
C 843.209 413.822 846.499 414.113 848.49 413.917
C 852.838 413.49 857.176 412.909 861.533 412.57
C 864.065 412.374 867.312 412.416 869.549 411.1
C 875.296 407.72 877.204 395.459 868.649 394.476
C 863.757 393.913 858.381 395.41 853.497 395.779
C 852.011 395.891 849.501 396.789 848.134 396.22
C 850.941 385.715 854.838 375.387 858.229 365.052
C 859.221 362.029 860.171 358.991 861.132 355.959
C 861.613 354.442 862.359 352.893 862.45 351.285
C 862.604 348.586 860.51 346.534 858.138 345.684
C 854.086 344.232 847.955 344.329 844.915 347.815
C 842.287 350.829 841.764 356.055 840.522 359.756
C 837.443 368.932 834.216 378.1 831.358 387.343
C 830.503 390.108 829.537 392.843 828.644 395.597
C 828.256 396.792 827.994 398.513 827.144 399.462
C 825.829 399.832 824.461 399.716 823.118 399.882
C 819.914 400.277 816.683 400.751 813.468 401.047
C 810.318 401.337 806.943 401.356 804.398 403.529
C 800.24 407.077 800.335 415.887 805.744 418.278
C 807.215 418.928 808.998 418.827 810.566 418.785
C 813.849 418.697 817.886 418.676 821.026 417.674
C 820.458 421.198 818.922 424.58 817.932 428.001
C 815.734 435.6 813.002 443.047 810.597 450.583
C 807.925 458.957 805.033 467.255 802.237 475.589
C 801.017 479.226 800.226 483.254 798.543 486.708
C 796.259 491.396 792.103 496.008 788.576 499.804
C 780.769 508.204 772.473 515.109 761.738 519.489
C 759.139 520.549 756.397 521.421 753.666 522.065
C 740.416 525.193 721.03 525.451 714.26 511.172
C 712.513 507.488 711.953 503.345 711.826 499.304
C 711.785 498.014 711.34 496.14 712.011 495.048
C 714.556 494.828 717.189 495.169 719.749 495.153
C 724.312 495.124 728.911 494.715 733.417 494
C 751.443 491.139 768.234 479.885 777.716 464.287
C 779.232 461.794 780.527 459.204 781.666 456.52
C 787.351 443.124 787.3 422.46 771.462 416.224
C 762.281 412.609 751.385 413.927 742.315 417.135
C 720.235 424.945 704.295 445.717 696.96 467.393
C 694.993 473.205 693.5 479.341 692.796 485.445
C 692.432 488.593 693.027 492.362 692.207 495.388
C 691.801 496.885 689.983 498.68 689.099 499.987
C 686.509 503.818 683.819 507.524 680.744 510.989
C 673.343 519.328 663.628 527.733 652.546 530.422
C 644.982 532.257 637.728 531.677 632.949 524.796
C 631.332 522.467 630.195 519.828 629.331 517.136
C 628.057 513.165 627.06 508.983 626.654 504.83
C 628.472 503.611 630.632 503.041 632.6 502.102
C 636.731 500.132 640.8 498.007 644.643 495.513
C 657.519 487.16 668.178 474.05 671.191 458.765
C 672.463 452.316 672.512 444.638 669.177 438.746
C 661.939 425.959 643.563 427.266 631.94 432.194
C 627.587 434.04 623.493 436.473 619.623 439.179
C 618.093 440.249 616.668 441.427 615.192 442.566
C 614.927 442.77 613.924 443.646 613.817 443.175
C 614.665 439.847 615.958 436.606 616.959 433.319
C 619.884 423.709 622.939 414.135 625.894 404.534
C 628.92 394.701 631.959 384.874 634.904 375.018
C 636.278 370.42 638.891 365.112 638.865 360.273
C 638.85 357.328 636.158 355.336 633.483 354.832
C 629.114 354.009 623.112 354.382 620.468 358.526
C 619.651 359.807 619.443 361.34 618.999 362.759
C 618.036 365.831 617.12 368.92 616.192 372.003
C 613.588 380.648 610.728 389.218 608.105 397.855
C 600.831 421.807 592.984 445.597 585.618 469.521
C 583.173 477.461 580.52 485.342 578.111 493.291
C 576.602 498.274 575.506 503.747 573.354 508.479
C 571.687 512.146 569.34 515.613 567.21 519.025
C 563.291 525.304 558.805 531.784 553.013 536.482
C 549.561 539.282 545.397 542.041 540.684 541.245
C 534.635 540.223 534.059 533.926 534.35 528.914
C 534.56 525.287 535.532 521.809 536.467 518.323
C 538.518 510.668 541.179 503.176 543.611 495.638
C 546.546 486.542 550.105 477.574 552.714 468.382
C 554.35 462.621 555.422 457.014 551.796 451.688
C 549.436 448.223 545.017 446.505 541.176 445.307
C 533.161 442.807 524.916 441.145 516.718 439.408
C 516.286 437.44 517.28 434.853 517.503 432.845
C 517.905 429.207 517.59 425.411 515.977 422.089
C 511.788 413.462 500.129 413.319 493.405 418.882
C 483.624 426.976 484.258 446.802 496.873 452.076
C 493.475 461.49 489.156 470.591 485.605 479.955
C 479.029 497.297 472.494 514.788 463.267 530.929
C 462.396 532.453 461.489 533.963 460.51 535.42
C 455.956 542.197 448.025 552.1 438.573 548.724
C 435.46 547.612 433.857 544.159 433.536 541.071
C 432.886 534.825 434.744 528.746 436.443 522.827
C 441.39 505.594 447.445 488.697 452.56 471.513
C 454.165 466.123 456.148 460.842 457.78 455.457
C 458.434 453.298 459.463 451.151 459.538 448.864
C 459.62 446.413 457.429 444.733 455.291 444.108
C 451.532 443.009 446.316 443.535 443.076 445.873
C 439.94 448.136 440.015 452.586 438.399 455.786
C 436.396 454.808 435.154 452.057 433.344 450.694
C 429.241 447.606 424.322 446.312 419.279 445.873
C 406.875 444.792 395.116 452.91 387.061 461.592
C 373.254 476.475 364.039 496.914 359.432 516.541
C 358.15 522.007 358.117 527.676 356.967 533.115 Z
M 379.618 584.776
C 381.9 587.504 387.182 588.668 390.556 589.264
C 400.131 590.954 409.946 588.759 417.934 583.187
C 420.279 581.55 423.491 579.579 424.895 577.006
C 422.188 575.369 419.664 573.322 416.915 571.794
C 406.378 580.889 393.719 586.152 379.618 584.776 Z
M 438.685 579.416
C 444.633 584.168 453.714 584.495 460.78 582.627
C 476.376 578.505 487.619 564.318 495.443 551.027
C 497.231 547.991 498.866 544.878 500.488 541.751
C 501.074 540.622 502.122 539.446 502.472 538.228
C 502.824 537.003 502.492 535.567 502.465 534.318
C 502.42 532.178 502.587 529.99 502.757 527.857
C 503.206 522.258 504.786 516.781 506.558 511.476
C 509.951 501.323 513.428 491.149 517.135 481.106
C 518.015 478.72 518.93 476.325 519.711 473.905
C 519.785 473.674 520.563 471.882 520.207 471.749
C 520.111 471.712 519.102 471.826 519.034 471.833
C 515.031 484.779 509.782 497.366 504.803 509.963
C 495.632 533.163 484.666 559.7 462.164 573.031
C 457.518 575.784 452.266 577.754 446.93 578.62
C 444.223 579.06 441.34 578.825 438.685 579.416 Z
M 446.014 533.727
C 445.983 533.887 445.952 534.047 445.922 534.207
C 445.909 534.736 447.257 532.698 447.431 532.472
C 448.56 531.009 449.667 529.515 450.628 527.932
C 453.295 523.54 455.549 518.871 457.84 514.275
C 464.555 500.802 469.197 486.959 473.865 472.706
C 475.407 467.998 476.47 463.877 473.201 459.71
C 472.347 458.622 471.355 457.576 469.989 457.2
C 467.385 463.075 465.941 469.642 464.063 475.779
C 460.056 488.871 455.751 501.879 451.587 514.921
C 449.624 521.067 448.399 527.767 446.014 533.727 Z
M 536.639 571.318
C 541.557 576.363 551.121 576.823 557.559 575.495
C 559.38 575.119 563.031 574.541 564.207 572.959
C 564.339 572.165 564.31 571.366 564.27 570.564
C 563.589 570.043 562.085 570.153 561.229 569.878
C 559.874 569.444 558.726 568.523 557.59 567.698
C 555.272 567.285 551.57 569.331 549.282 570
C 545.378 571.143 540.687 571.593 536.639 571.318 Z
M 546.91 525.273
C 547.007 525.55 547.757 524.611 547.892 524.446
C 548.849 523.275 549.771 522.067 550.686 520.864
C 553.09 517.703 555.3 514.484 557.46 511.15
C 560.998 505.689 562.624 500.13 564.715 494.057
C 566.623 488.515 568.374 482.896 570.079 477.289
C 571.197 473.612 571.117 470.954 569.202 467.606
C 568.672 466.679 566.95 463.754 565.875 464.92
C 565.036 470.299 562.937 475.406 561.244 480.55
C 558.352 489.337 555.417 498.121 552.632 506.942
C 551.325 511.082 549.937 515.209 548.716 519.376
C 548.228 521.042 547.941 523.939 546.91 525.273 Z
M 573.658 569.945
C 576.81 576.075 587.151 576.196 592.036 572.487
C 595.169 570.107 596.438 566.027 597.647 562.439
C 599.202 557.826 601.005 553.216 602.789 548.688
C 603.48 546.932 604.063 545.147 604.836 543.423
C 605.232 542.542 606.045 541.574 605.937 540.552
C 605.802 539.266 604.845 537.879 604.269 536.746
C 603.296 534.833 602.473 532.846 601.601 530.886
C 600.984 529.501 600.521 528.059 600.208 526.577
C 600.101 526.069 600.188 525.35 599.527 525.644
C 597.22 533.452 594.917 541.309 592.381 549.067
C 590.189 555.772 588.902 564.504 581.803 567.925
C 579.306 569.129 576.385 569.612 573.658 569.945 Z
M 622.949 475.067
C 622.875 475.274 622.8 475.481 622.726 475.687
C 623.89 476.473 626.829 474.114 627.835 473.49
C 631.189 471.413 634.163 468.599 636.634 465.54
C 637.816 464.076 639.139 462.527 639.505 460.641
C 637.252 461.023 635.482 462.613 633.719 463.949
C 629.567 467.094 625.74 470.646 622.949 475.067 Z
M 635.014 417.128
C 634.974 417.323 634.934 417.519 634.894 417.714
C 635.512 417.957 637.033 417.253 637.676 417.069
C 639.695 416.494 641.683 416.337 643.769 416.203
C 645.756 412.42 646.438 407.634 647.687 403.563
C 649.737 396.878 651.791 390.145 653.583 383.386
C 654.593 379.575 655.452 376.277 653.66 372.512
C 653.178 371.5 650.2 367.891 649.442 369.345
C 645.874 379.978 642.687 390.824 639.546 401.593
C 638.066 406.667 637.003 412.242 635.014 417.128 Z
M 637.181 561.313
C 637.965 562.488 639.633 563.02 640.9 563.584
C 644.826 565.333 648.641 565.995 652.886 566.461
C 666.346 567.941 679.816 561.056 690.464 553.551
C 693.27 551.574 695.824 549.371 698.37 547.069
C 699.149 546.365 700.553 545.509 700.93 544.521
C 698.559 542.846 696.075 540.509 694.522 538.052
C 690.517 540.736 687.151 544.381 683.142 547.138
C 669.936 556.219 653.571 563.603 637.181 561.313 Z
M 641.344 512.014
C 641.26 512.102 641.176 512.19 641.092 512.278
C 641.843 514.408 642.525 517.088 644.788 518.154
C 646.464 518.943 648.946 517.823 650.51 517.221
C 655.192 515.418 659.684 512.743 663.537 509.535
C 668.008 505.812 672.082 501.598 675.592 496.957
C 676.836 495.311 678.586 493.325 679.179 491.317
C 679.773 489.304 679.658 487.067 679.937 484.999
C 680.414 481.459 681.098 477.952 681.757 474.443
C 682.611 469.899 684.582 465.545 685.403 461.054
C 685.679 459.545 684.841 458.2 684.27 456.855
C 684.056 456.35 683.905 455.831 683.614 455.378
C 683.504 455.208 683.396 454.663 683.316 454.849
C 683.019 455.543 683.279 456.358 683.233 457.112
C 683.149 458.471 682.891 459.816 682.633 461.152
C 681.744 465.76 680.262 470.395 678.483 474.738
C 673.206 487.621 662.912 498.192 651.608 505.989
C 648.338 508.244 644.752 509.99 641.344 512.014 Z
M 719.378 551.368
C 723.804 555.14 731.061 556.816 736.653 557.821
C 753.104 560.778 770.633 557.656 785.552 550.252
C 790.608 547.742 797.716 544.548 801.076 539.82
C 798.364 538.354 796.536 535.633 794.061 533.878
C 792.744 534.233 791.493 535.65 790.409 536.473
C 788.322 538.057 786.027 539.452 783.743 540.733
C 775.678 545.254 767.326 548.828 758.328 551.029
C 749.999 553.067 740.761 554.066 732.2 553.415
C 729.31 553.195 726.395 552.805 723.547 552.262
C 722.249 552.015 720.7 551.187 719.378 551.368 Z
M 726.915 507.292
C 732.224 512.331 742.59 510.913 749.101 509.631
C 764.51 506.598 777.631 495.525 785.559 482.197
C 789.274 475.953 791.752 468.941 794.189 462.121
C 795.803 457.608 797.366 452.999 798.775 448.412
C 799.248 446.871 800.37 444.956 799.918 443.316
C 799.458 441.653 798.531 439.89 797.628 438.428
C 797.333 437.95 797.256 436.942 796.7 437.021
C 796.324 437.076 796.634 437.781 796.639 438.162
C 796.651 439.105 796.794 440.048 796.797 440.997
C 796.804 443.943 796.592 446.807 796.037 449.704
C 794.362 458.449 791.195 466.759 786.181 474.159
C 776.054 489.101 760.427 499.541 743.276 504.634
C 737.894 506.232 732.306 506.052 726.915 507.292 Z
M 817.746 544.584
C 817.672 545.043 819.44 545.845 819.804 546.022
C 822.124 547.154 824.583 548.05 827.102 548.615
C 837.589 550.965 848.131 549.023 857.711 544.347
C 873.322 536.727 885.923 524.069 893.72 508.608
C 896.188 503.716 898.327 498.178 897.843 492.602
C 897.665 490.558 897.087 488.291 895.816 486.635
C 895.409 486.106 894.284 484.615 893.915 485.276
C 885.044 517.982 852.776 547.366 817.746 544.584 Z
M 827.931 497.085
C 827.601 498.621 827.521 499.993 828.007 501.508
C 829.224 501.481 830.322 500.71 831.428 500.272
C 833.266 499.545 835.522 498.517 836.819 496.963
C 837.755 495.841 837.939 494.39 838.416 493.058
C 839.441 490.191 840.265 487.262 841.149 484.349
C 844.656 472.8 848.743 461.416 852.119 449.827
C 853.216 446.062 854.537 442.363 855.69 438.615
C 856.301 436.628 856.61 434.243 857.737 432.479
C 859.944 431.76 862.642 431.915 864.951 431.69
C 871.353 431.065 878.498 430.832 884.104 427.327
C 890.803 423.139 891.344 414 884.852 409.356
C 884.635 410.974 883.86 412.488 883.129 413.942
C 878.514 423.125 869.313 424.105 860.209 425.202
C 858.185 425.446 856.153 425.65 854.119 425.792
C 852.959 425.873 851.611 425.814 850.631 426.493
C 849.271 429.02 848.637 432.056 847.818 434.794
C 846.506 439.181 845.062 443.54 843.641 447.893
C 838.302 464.255 832.798 480.58 827.931 497.085 Z
M 865.88 380.623
C 865.828 380.813 865.775 381.004 865.723 381.194
C 868.46 381.085 871.12 381.358 873.815 381.734
C 875.787 375.601 879.954 368.203 875.153 362.36
C 874.384 361.423 873.553 360.689 872.588 359.983
C 871.921 363.812 870.136 367.851 868.797 371.506
C 867.703 374.495 867.044 377.667 865.88 380.623 Z"
opacity="1" fill="rgb(1,0,1)" fill-rule="evenodd" />
<path d="
M 146.091 616.245
C 166.793 619.322 183.711 604.292 193.219 587.559
C 199.652 576.236 203.774 563.966 207.834 551.655
C 213.492 534.501 218.456 517.11 223.578 499.79
C 225.293 493.988 226.456 487.917 228.589 482.258
C 228.96 487.308 227.773 492.657 227.429 497.706
C 227.093 502.645 226.676 507.576 226.336 512.514
C 226.123 515.616 226.198 518.86 225.604 521.917
C 224.944 525.319 223.61 528.742 222.586 532.054
C 220.481 538.867 218.267 545.644 216.258 552.487
C 211.327 569.284 205.99 587.264 195.695 601.686
C 187.035 613.817 174.809 622.529 159.274 620.898
C 154.948 620.444 149.303 619.416 146.091 616.245 Z"
opacity="1" fill="rgb(206,113,139)" fill-rule="evenodd" />
<path d="
M 177.244 399.345
C 178.716 399.464 180.081 400.029 181.531 400.232
C 189.776 401.383 199.496 402.987 207.702 400.931
C 207.836 400.958 207.154 402.579 207.076 402.822
C 206.644 404.155 206.484 405.632 205.973 406.926
C 198.607 406.288 191.522 405.277 184.473 402.97
C 182.19 402.223 178.89 401.137 177.244 399.345 Z"
opacity="0.996" fill="rgb(208,119,147)" fill-rule="evenodd" />
<path d="
M 250.413 572.327
C 253.816 570.933 257.472 570.67 260.479 568.346
C 263.349 566.13 264.817 562.761 266.484 559.648
C 269.697 553.651 272.697 547.55 275.821 541.508
C 285.934 521.948 295.603 502.137 305.876 482.673
C 306.497 482.461 305.846 484.476 305.724 484.861
C 304.923 487.396 304.239 489.966 303.423 492.5
C 301.428 498.701 299.969 505.161 298.434 511.491
C 297.625 514.827 297.044 518.255 295.906 521.501
C 294.644 525.101 292.676 528.479 290.993 531.892
C 287.814 538.341 284.529 544.727 281.248 551.123
C 277.786 557.872 275.096 565.449 270.809 571.721
C 266.504 578.02 255.153 578.143 250.413 572.327 Z"
opacity="1" fill="rgb(206,113,140)" fill-rule="evenodd" />
<path d="
M 271.478 451.123
C 272.189 446.315 272.11 441.305 272.296 436.455
C 272.588 428.822 272.925 421.128 273.453 413.508
C 273.944 406.414 274.17 399.296 274.486 392.187
C 274.674 387.969 275.338 383.438 274.837 379.246
C 280.768 384.418 280.533 391.173 280.192 398.506
C 279.627 410.651 279.25 422.817 278.793 434.966
C 278.686 437.797 279.002 441.178 278.265 443.923
C 277.547 446.595 275.309 449.451 274.014 451.924
C 273.237 453.407 272.591 455.829 271.331 456.943
C 271.476 455.02 271.291 453.059 271.478 451.123 Z"
opacity="1" fill="rgb(207,115,141)" fill-rule="evenodd" />
<path d="
M 326.547 623.688
C 333.444 624.811 341.622 621.235 345.804 615.746
C 347.921 612.967 348.959 609.605 350.017 606.326
C 351.439 606.629 352.578 608.324 353.298 609.488
C 355.59 613.196 355.487 617.553 353.464 621.359
C 349.541 628.739 338.88 629.449 331.883 626.656
C 330.073 625.933 327.861 625.129 326.547 623.688 Z"
opacity="1" fill="rgb(207,115,138)" fill-rule="evenodd" />
<path d="
M 332.968 567.622
C 333.734 563.501 333.767 559.157 334.396 554.991
C 335.815 545.591 337.914 536.29 339.964 527.013
C 346.491 497.489 355.677 468.437 363.966 439.371
C 368.02 425.155 371.656 410.661 376.246 396.613
C 377.732 392.068 379.064 387.444 380.298 382.826
C 380.769 381.067 381.137 379.284 381.575 377.518
C 381.704 377 381.499 376.27 381.932 375.956
C 382.128 375.814 382.352 376.202 382.548 376.345
C 387.405 379.895 387.592 386.498 386.162 391.687
C 382.799 403.89 379.494 416.146 375.832 428.258
C 371.173 443.665 367.629 459.529 362.48 474.774
C 360.585 480.386 357.322 485.617 354.963 491.054
C 351.887 498.144 349.616 505.586 347.666 513.055
C 345.863 519.956 344.853 527.17 344.467 534.286
C 344.284 537.662 344.76 541.143 344.328 544.493
C 343.654 549.725 342.026 555.015 340.982 560.199
C 339.474 567.689 338.679 575.175 338.076 582.772
C 336.371 583.149 334.059 581.114 333.508 579.651
C 332.165 576.087 332.648 571.341 332.968 567.622 Z"
opacity="1" fill="rgb(207,114,139)" fill-rule="evenodd" />
<path d="
M 375.952 531.107
C 376.52 525.423 377.954 519.809 379.483 514.321
C 383.62 499.47 390.642 483.745 401.556 472.611
C 407.21 466.844 416.136 460.9 424.129 465.837
C 425.369 466.603 426.302 467.662 427.096 468.876
C 428.033 470.31 428.834 472.037 429.313 473.682
C 429.906 475.722 430.243 477.965 430.168 480.09
C 430.071 482.852 428.935 485.597 428.083 488.2
C 426.69 492.453 425.37 496.721 423.927 500.96
C 418.431 517.097 413.673 533.912 402.129 547.005
C 396.897 552.939 384.469 559.905 378.378 550.956
C 374.604 545.412 375.32 537.44 375.952 531.107 Z
M 388.434 530.609
C 388.108 533.083 388.136 535.604 388.079 538.093
C 388.05 539.374 387.91 540.757 388.489 541.939
C 394.116 541.096 395.574 533.389 396.721 528.943
C 399.555 517.961 404.469 507.189 410.207 497.443
C 411.506 495.236 413.233 493.335 414.577 491.174
C 416.244 488.494 416.73 484.052 417.373 480.971
C 417.64 479.694 417.889 478.489 417.188 477.305
C 415.84 477.041 414.364 478.195 413.342 478.967
C 410.232 481.317 407.829 484.233 405.475 487.304
C 395.933 499.752 391.805 515.659 388.434 530.609 Z"
opacity="1" fill="rgb(0,0,1)" fill-rule="evenodd" />
<path d="
M 379.618 584.776
C 393.719 586.152 406.378 580.889 416.915 571.794
C 419.664 573.322 422.188 575.369 424.895 577.006
C 423.491 579.579 420.279 581.55 417.934 583.187
C 409.946 588.759 400.131 590.954 390.556 589.264
C 387.182 588.668 381.9 587.504 379.618 584.776 Z"
opacity="1" fill="rgb(205,111,138)" fill-rule="evenodd" />
<path d="
M 388.434 530.609
C 391.805 515.659 395.933 499.752 405.475 487.304
C 407.829 484.233 410.232 481.317 413.342 478.967
C 414.364 478.195 415.84 477.041 417.188 477.305
C 417.889 478.489 417.64 479.694 417.373 480.971
C 416.73 484.052 416.244 488.494 414.577 491.174
C 413.233 493.335 411.506 495.236 410.207 497.443
C 404.469 507.189 399.555 517.961 396.721 528.943
C 395.574 533.389 394.116 541.096 388.489 541.939
C 387.91 540.757 388.05 539.374 388.079 538.093
C 388.136 535.604 388.108 533.083 388.434 530.609 Z"
opacity="1" fill="rgb(206,113,140)" fill-rule="evenodd" />
<path d="
M 438.685 579.416
C 441.34 578.825 444.223 579.06 446.93 578.62
C 452.266 577.754 457.518 575.784 462.164 573.031
C 484.666 559.7 495.632 533.163 504.803 509.963
C 509.782 497.366 515.031 484.779 519.034 471.833
C 519.102 471.826 520.111 471.712 520.207 471.749
C 520.563 471.882 519.785 473.674 519.711 473.905
C 518.93 476.325 518.015 478.72 517.135 481.106
C 513.428 491.149 509.951 501.323 506.558 511.476
C 504.786 516.781 503.206 522.258 502.757 527.857
C 502.587 529.99 502.42 532.178 502.465 534.318
C 502.492 535.567 502.824 537.003 502.472 538.228
C 502.122 539.446 501.074 540.622 500.488 541.751
C 498.866 544.878 497.231 547.991 495.443 551.027
C 487.619 564.318 476.376 578.505 460.78 582.627
C 453.714 584.495 444.633 584.168 438.685 579.416 Z"
opacity="1" fill="rgb(204,112,140)" fill-rule="evenodd" />
<path d="
M 446.014 533.727
C 448.399 527.767 449.624 521.067 451.587 514.921
C 455.751 501.879 460.056 488.871 464.063 475.779
C 465.941 469.642 467.385 463.075 469.989 457.2
C 471.355 457.576 472.347 458.622 473.201 459.71
C 476.47 463.877 475.407 467.998 473.865 472.706
C 469.197 486.959 464.555 500.802 457.84 514.275
C 455.549 518.871 453.295 523.54 450.628 527.932
C 449.667 529.515 448.56 531.009 447.431 532.472
C 447.257 532.698 445.909 534.736 445.922 534.207
C 445.952 534.047 445.983 533.887 446.014 533.727 Z"
opacity="1" fill="rgb(208,116,141)" fill-rule="evenodd" />
<path d="
M 479.5 649.126
C 479.484 646.837 481.355 645.049 482.653 643.341
C 485.299 639.861 487.406 635.95 490.096 632.524
C 491.135 631.2 492.805 630.485 494.477 631.01
C 496.27 631.573 497.749 633.152 499.236 634.235
C 501.38 635.798 503.724 637.073 505.888 638.623
C 506.903 639.349 508.867 641.138 510.129 641.238
C 509.437 636.483 510.123 631.271 510.145 626.469
C 510.153 624.609 509.695 622.11 510.979 620.584
C 512.481 618.8 515.003 618.861 517.148 619.018
C 520.518 619.265 524.043 619.178 527.416 619.011
C 529.013 618.933 531.572 618.462 532.991 619.357
C 535.294 620.81 535.014 623.33 535.739 625.598
C 537.16 625.785 538.594 625.551 540.006 625.866
C 542.2 627.695 542.046 629.686 541.911 632.262
C 541.857 633.303 541.528 635.314 542.407 636.045
C 545.778 635.294 548.932 630.511 552.539 631.442
C 555.068 632.094 555.798 635.287 557.435 636.981
C 558.76 638.352 560.657 638.967 562.04 640.281
C 564.899 642.999 567.294 646.638 569.417 649.936
C 570.584 651.75 572.597 654.022 571.983 656.335
C 571.463 658.299 568.856 659.243 567.302 660.24
C 563.168 662.892 559.086 665.596 555.252 668.636
C 555.451 669.311 556.402 669.79 556.954 670.226
C 558.799 671.68 561.095 672.423 562.948 673.892
C 564.479 675.104 564.53 676.891 565.675 678.345
C 567.273 680.372 570.002 680.778 571.317 683.179
C 572.375 685.111 571.394 686.666 570.23 688.23
C 568.147 691.028 566.001 693.761 563.969 696.597
C 562.429 698.747 560.852 701.938 558.63 703.417
C 557.423 703.944 555.68 702.922 554.687 702.284
C 551.59 700.291 548.687 697.937 545.686 695.801
C 544.924 695.259 542.364 692.817 541.48 693.343
C 541.53 699.379 542.282 705.84 541.311 711.851
C 540.232 715.649 534.607 714.631 531.508 714.636
C 528.055 714.642 524.604 714.673 521.152 714.726
C 519.635 714.749 517.714 714.882 516.505 713.789
C 514.863 712.304 514.856 709.593 514.722 707.559
C 508.803 707.515 510.609 700.796 510.271 696.967
C 507.702 698.041 505.507 699.775 503.137 701.215
C 501.976 701.921 500.482 702.949 499.053 702.779
C 496.631 702.491 495.196 699.602 493.685 698.004
C 492.575 696.829 491.276 695.964 490.25 694.684
C 487.446 691.183 485.157 687.286 482.565 683.633
C 480.934 681.334 478.666 679.087 479.894 675.998
C 481.187 674.283 483.328 673.48 485.155 672.469
C 487.485 671.178 489.605 669.558 491.893 668.2
C 493.072 667.499 494.895 666.581 495.765 665.542
C 493.806 662.451 489.227 661.454 486.549 659.072
C 484.956 657.655 484.944 656.253 484.159 654.443
C 482.225 652.556 479.762 652.172 479.5 649.126 Z
M 488.337 656.468
C 488.24 657.215 489.474 658.035 490.051 658.414
C 492.133 659.781 494.189 661.187 496.223 662.628
C 496.618 662.908 498.557 664.496 498.859 663.998
C 498.584 662.966 497.246 662.472 496.473 661.872
C 493.99 659.947 491.158 657.832 488.337 656.468 Z
M 488.911 647.512
C 488.594 648.117 488.726 647.788 488.532 648.506
C 494.088 652.028 499.705 655.512 505.315 658.956
C 507.211 660.119 510.883 661.445 510.042 664.262
C 509.415 666.366 506.095 667.614 504.403 668.675
C 501.634 670.411 498.972 672.306 496.171 673.997
C 493.702 675.487 490.848 676.882 488.91 679.053
C 489.737 682.074 492.55 684.171 494 686.876
C 495.868 686.966 498.565 684.307 500.118 683.316
C 503.261 681.312 506.476 679.417 509.541 677.293
C 511.553 675.898 513.713 674.151 516.12 673.57
C 518.168 674.372 517.664 678.486 517.663 680.181
C 517.66 684.121 517.815 688.062 517.848 692.001
C 517.869 694.568 517.628 697.307 518.05 699.842
C 519.686 701.124 524.813 700.762 526.687 700.129
C 527.954 698.85 527.413 696.408 527.396 694.749
C 527.347 689.998 527.538 685.242 527.619 680.492
C 527.653 678.48 527.234 675.212 529.027 673.872
C 530.837 673.679 532.763 675.288 534.243 676.198
C 538.084 678.562 541.72 681.249 545.535 683.653
C 546.807 684.454 548.934 686.692 550.488 686.467
C 551.804 684.758 553.234 683.137 554.563 681.439
C 555.19 680.639 555.988 679.574 555.852 678.522
C 554.686 677.054 552.769 676.058 551.208 675.055
C 547.595 672.731 543.857 670.58 540.165 668.383
C 538.239 667.236 534.655 665.854 534.178 663.448
C 534.745 661.249 538.36 659.577 540.168 658.491
C 543.523 656.477 546.763 654.246 550.068 652.151
C 552.009 650.922 554.272 649.929 555.885 648.262
C 555.997 647.448 555.511 646.733 555.03 646.115
C 553.736 644.452 552.399 641.188 550.538 640.257
C 548.613 640.556 546.76 642.498 545.147 643.524
C 542.267 645.358 539.367 647.178 536.532 649.08
C 534.027 650.761 531.447 652.733 528.506 653.503
C 526.97 652.303 527.654 648.278 527.644 646.508
C 527.616 642.006 527.612 637.506 527.636 633.005
C 527.646 631.162 528.173 628.451 527.354 626.772
C 524.935 625.667 520.569 626.058 518.027 626.55
C 516.982 628.379 517.709 631.927 517.715 634.001
C 517.728 638.166 517.729 642.333 517.658 646.498
C 517.62 648.723 517.863 651.383 517.099 653.501
C 515.752 654.429 512.409 651.388 511.338 650.68
C 505.797 647.018 500.207 643.267 494.449 639.987
C 492.253 641.835 490.283 645.008 488.911 647.512 Z
M 495.908 696.095
C 496.737 697.671 497.967 698.737 499.104 700.057
C 500.086 700.252 501.443 699.103 502.248 698.592
C 504.807 696.967 508.292 695.187 510.188 692.784
C 510.687 690.675 510.242 688.153 510.099 686.005
C 506.371 687.732 502.977 690.28 499.68 692.711
C 498.414 693.644 496.588 694.625 495.908 696.095 Z
M 517.807 708.395
C 517.254 709.809 517.943 711.204 519.199 711.966
C 520.867 712.42 522.818 711.973 524.529 711.942
C 527.721 711.884 530.949 711.946 534.134 712.042
C 535.712 712.09 537.781 711.719 538.654 710.251
C 539.575 708.703 538.945 705.742 538.933 703.998
C 538.899 699.206 538.322 693.955 539.194 689.231
C 539.7 688.968 541.744 689.265 540.55 688.473
C 538.907 688.244 537.71 686.873 536.185 686.262
C 535.77 686.096 535.152 685.748 534.742 686.042
C 534.242 691.104 534.742 696.379 534.847 701.458
C 534.891 703.547 534.652 706.342 532.351 707.257
C 529.524 708.382 525.379 707.749 522.38 707.683
C 520.729 707.646 519.186 707.304 517.807 708.395 Z
M 534.962 629.619
C 534.544 633.398 534.984 637.238 534.94 641.025
C 535.919 641.237 538.567 639.097 539.289 638.391
C 539.747 636.009 539.98 631.074 538.64 628.983
C 537.851 628.429 535.944 627.824 535.189 628.653
C 535.039 629.367 535.119 629.046 534.962 629.619 Z
M 543.416 690.915
C 544.385 692.475 546.655 693.578 548.142 694.633
C 548.452 694.853 549.639 695.833 549.999 695.658
C 550.6 695.367 548.961 694.345 548.794 694.218
C 547.312 693.097 545.328 691.008 543.416 690.915 Z
M 546.291 663.579
C 547.181 664.744 549.043 665.413 550.291 666.149
C 550.86 666.485 551.561 667.125 552.229 667.176
C 555.323 663.911 559.86 661.589 563.69 659.271
C 565.442 658.211 567.66 657.294 568.972 655.669
C 569.747 653.453 566.679 650.554 565.596 648.887
C 565.003 647.974 564.873 647.226 564.07 646.442
C 564.291 647.647 564.803 649.424 564.557 650.693
C 563.778 652.691 561.204 653.727 559.503 654.783
C 556.688 656.532 553.877 658.327 551.148 660.208
C 549.602 661.274 547.978 662.805 546.291 663.579 Z
M 552.079 695.917
C 551.931 696.117 551.783 696.317 551.635 696.518
C 552.705 697.971 555.216 700.355 557.052 700.564
C 558.403 699.794 559.368 698.178 560.264 696.943
C 562.126 694.378 563.804 691.68 565.737 689.168
C 566.655 687.975 568.482 686.155 568.673 684.624
C 567.857 682.975 565.853 681.665 564.178 681.057
C 560.651 685.868 557.165 691.476 552.811 695.609
C 552.333 695.821 552.577 695.718 552.079 695.917 Z"
opacity="1" fill="rgb(4,1,2)" fill-rule="evenodd" />
<path d="
M 488.337 656.468
C 491.158 657.832 493.99 659.947 496.473 661.872
C 497.246 662.472 498.584 662.966 498.859 663.998
C 498.557 664.496 496.618 662.908 496.223 662.628
C 494.189 661.187 492.133 659.781 490.051 658.414
C 489.474 658.035 488.24 657.215 488.337 656.468 Z"
opacity="0.992" fill="rgb(126,102,88)" fill-rule="evenodd" />
<path d="
M 488.911 647.512
C 490.283 645.008 492.253 641.835 494.449 639.987
C 500.207 643.267 505.797 647.018 511.338 650.68
C 512.409 651.388 515.752 654.429 517.099 653.501
C 517.863 651.383 517.62 648.723 517.658 646.498
C 517.729 642.333 517.728 638.166 517.715 634.001
C 517.709 631.927 516.982 628.379 518.027 626.55
C 520.569 626.058 524.935 625.667 527.354 626.772
C 528.173 628.451 527.646 631.162 527.636 633.005
C 527.612 637.506 527.616 642.006 527.644 646.508
C 527.654 648.278 526.97 652.303 528.506 653.503
C 531.447 652.733 534.027 650.761 536.532 649.08
C 539.367 647.178 542.267 645.358 545.147 643.524
C 546.76 642.498 548.613 640.556 550.538 640.257
C 552.399 641.188 553.736 644.452 555.03 646.115
C 555.511 646.733 555.997 647.448 555.885 648.262
C 554.272 649.929 552.009 650.922 550.068 652.151
C 546.763 654.246 543.523 656.477 540.168 658.491
C 538.36 659.577 534.745 661.249 534.178 663.448
C 534.655 665.854 538.239 667.236 540.165 668.383
C 543.857 670.58 547.595 672.731 551.208 675.055
C 552.769 676.058 554.686 677.054 555.852 678.522
C 555.988 679.574 555.19 680.639 554.563 681.439
C 553.234 683.137 551.804 684.758 550.488 686.467
C 548.934 686.692 546.807 684.454 545.535 683.653
C 541.72 681.249 538.084 678.562 534.243 676.198
C 532.763 675.288 530.837 673.679 529.027 673.872
C 527.234 675.212 527.653 678.48 527.619 680.492
C 527.538 685.242 527.347 689.998 527.396 694.749
C 527.413 696.408 527.954 698.85 526.687 700.129
C 524.813 700.762 519.686 701.124 518.05 699.842
C 517.628 697.307 517.869 694.568 517.848 692.001
C 517.815 688.062 517.66 684.121 517.663 680.181
C 517.664 678.486 518.168 674.372 516.12 673.57
C 513.713 674.151 511.553 675.898 509.541 677.293
C 506.476 679.417 503.261 681.312 500.118 683.316
C 498.565 684.307 495.868 686.966 494 686.876
C 492.55 684.171 489.737 682.074 488.91 679.053
C 490.848 676.882 493.702 675.487 496.171 673.997
C 498.972 672.306 501.634 670.411 504.403 668.675
C 506.095 667.614 509.415 666.366 510.042 664.262
C 510.883 661.445 507.211 660.119 505.315 658.956
C 499.705 655.512 494.088 652.028 488.532 648.506
C 488.726 647.788 488.594 648.117 488.911 647.512 Z"
opacity="1" fill="rgb(202,117,141)" fill-rule="evenodd" />
<path d="
M 495.908 696.095
C 496.588 694.625 498.414 693.644 499.68 692.711
C 502.977 690.28 506.371 687.732 510.099 686.005
C 510.242 688.153 510.687 690.675 510.188 692.784
C 508.292 695.187 504.807 696.967 502.248 698.592
C 501.443 699.103 500.086 700.252 499.104 700.057
C 497.967 698.737 496.737 697.671 495.908 696.095 Z"
opacity="1" fill="rgb(211,114,143)" fill-rule="evenodd" />
<path d="
M 517.807 708.395
C 519.186 707.304 520.729 707.646 522.38 707.683
C 525.379 707.749 529.524 708.382 532.351 707.257
C 534.652 706.342 534.891 703.547 534.847 701.458
C 534.742 696.379 534.242 691.104 534.742 686.042
C 535.152 685.748 535.77 686.096 536.185 686.262
C 537.71 686.873 538.907 688.244 540.55 688.473
C 541.744 689.265 539.7 688.968 539.194 689.231
C 538.322 693.955 538.899 699.206 538.933 703.998
C 538.945 705.742 539.575 708.703 538.654 710.251
C 537.781 711.719 535.712 712.09 534.134 712.042
C 530.949 711.946 527.721 711.884 524.529 711.942
C 522.818 711.973 520.867 712.42 519.199 711.966
C 517.943 711.204 517.254 709.809 517.807 708.395 Z"
opacity="1" fill="rgb(205,119,149)" fill-rule="evenodd" />
<path d="
M 534.962 629.619
C 535.119 629.046 535.039 629.367 535.189 628.653
C 535.944 627.824 537.851 628.429 538.64 628.983
C 539.98 631.074 539.747 636.009 539.289 638.391
C 538.567 639.097 535.919 641.237 534.94 641.025
C 534.984 637.238 534.544 633.398 534.962 629.619 Z"
opacity="0.996" fill="rgb(210,123,157)" fill-rule="evenodd" />
<path d="
M 536.639 571.318
C 540.687 571.593 545.378 571.143 549.282 570
C 551.57 569.331 555.272 567.285 557.59 567.698
C 558.726 568.523 559.874 569.444 561.229 569.878
C 562.085 570.153 563.589 570.043 564.27 570.564
C 564.31 571.366 564.339 572.165 564.207 572.959
C 563.031 574.541 559.38 575.119 557.559 575.495
C 551.121 576.823 541.557 576.363 536.639 571.318 Z"
opacity="1" fill="rgb(204,117,143)" fill-rule="evenodd" />
<path d="
M 543.416 690.915
C 545.328 691.008 547.312 693.097 548.794 694.218
C 548.961 694.345 550.6 695.367 549.999 695.658
C 549.639 695.833 548.452 694.853 548.142 694.633
C 546.655 693.578 544.385 692.475 543.416 690.915 Z"
opacity="0.996" fill="rgb(83,70,63)" fill-rule="evenodd" />
<path d="
M 546.291 663.579
C 547.978 662.805 549.602 661.274 551.148 660.208
C 553.877 658.327 556.688 656.532 559.503 654.783
C 561.204 653.727 563.778 652.691 564.557 650.693
C 564.803 649.424 564.291 647.647 564.07 646.442
C 564.873 647.226 565.003 647.974 565.596 648.887
C 566.679 650.554 569.747 653.453 568.972 655.669
C 567.66 657.294 565.442 658.211 563.69 659.271
C 559.86 661.589 555.323 663.911 552.229 667.176
C 551.561 667.125 550.86 666.485 550.291 666.149
C 549.043 665.413 547.181 664.744 546.291 663.579 Z"
opacity="1" fill="rgb(217,124,150)" fill-rule="evenodd" />
<path d="
M 546.91 525.273
C 547.941 523.939 548.228 521.042 548.716 519.376
C 549.937 515.209 551.325 511.082 552.632 506.942
C 555.417 498.121 558.352 489.337 561.244 480.55
C 562.937 475.406 565.036 470.299 565.875 464.92
C 566.95 463.754 568.672 466.679 569.202 467.606
C 571.117 470.954 571.197 473.612 570.079 477.289
C 568.374 482.896 566.623 488.515 564.715 494.057
C 562.624 500.13 560.998 505.689 557.46 511.15
C 555.3 514.484 553.09 517.703 550.686 520.864
C 549.771 522.067 548.849 523.275 547.892 524.446
C 547.757 524.611 547.007 525.55 546.91 525.273 Z"
opacity="1" fill="rgb(207,118,142)" fill-rule="evenodd" />
<path d="
M 552.079 695.917
C 552.577 695.718 552.333 695.821 552.811 695.609
C 557.165 691.476 560.651 685.868 564.178 681.057
C 565.853 681.665 567.857 682.975 568.673 684.624
C 568.482 686.155 566.655 687.975 565.737 689.168
C 563.804 691.68 562.126 694.378 560.264 696.943
C 559.368 698.178 558.403 699.794 557.052 700.564
C 555.216 700.355 552.705 697.971 551.635 696.518
C 551.783 696.317 551.931 696.117 552.079 695.917 Z"
opacity="1" fill="rgb(215,122,151)" fill-rule="evenodd" />
<path d="
M 573.658 569.945
C 576.385 569.612 579.306 569.129 581.803 567.925
C 588.902 564.504 590.189 555.772 592.381 549.067
C 594.917 541.309 597.22 533.452 599.527 525.644
C 600.188 525.35 600.101 526.069 600.208 526.577
C 600.521 528.059 600.984 529.501 601.601 530.886
C 602.473 532.846 603.296 534.833 604.269 536.746
C 604.845 537.879 605.802 539.266 605.937 540.552
C 606.045 541.574 605.232 542.542 604.836 543.423
C 604.063 545.147 603.48 546.932 602.789 548.688
C 601.005 553.216 599.202 557.826 597.647 562.439
C 596.438 566.027 595.169 570.107 592.036 572.487
C 587.151 576.196 576.81 576.075 573.658 569.945 Z"
opacity="1" fill="rgb(205,111,138)" fill-rule="evenodd" />
<path d="
M 622.949 475.067
C 625.74 470.646 629.567 467.094 633.719 463.949
C 635.482 462.613 637.252 461.023 639.505 460.641
C 639.139 462.527 637.816 464.076 636.634 465.54
C 634.163 468.599 631.189 471.413 627.835 473.49
C 626.829 474.114 623.89 476.473 622.726 475.687
C 622.8 475.481 622.875 475.274 622.949 475.067 Z"
opacity="1" fill="rgb(216,120,150)" fill-rule="evenodd" />
<path d="
M 635.014 417.128
C 637.003 412.242 638.066 406.667 639.546 401.593
C 642.687 390.824 645.874 379.978 649.442 369.345
C 650.2 367.891 653.178 371.5 653.66 372.512
C 655.452 376.277 654.593 379.575 653.583 383.386
C 651.791 390.145 649.737 396.878 647.687 403.563
C 646.438 407.634 645.756 412.42 643.769 416.203
C 641.683 416.337 639.695 416.494 637.676 417.069
C 637.033 417.253 635.512 417.957 634.894 417.714
C 634.934 417.519 634.974 417.323 635.014 417.128 Z"
opacity="1" fill="rgb(206,112,142)" fill-rule="evenodd" />
<path d="
M 637.181 561.313
C 653.571 563.603 669.936 556.219 683.142 547.138
C 687.151 544.381 690.517 540.736 694.522 538.052
C 696.075 540.509 698.559 542.846 700.93 544.521
C 700.553 545.509 699.149 546.365 698.37 547.069
C 695.824 549.371 693.27 551.574 690.464 553.551
C 679.816 561.056 666.346 567.941 652.886 566.461
C 648.641 565.995 644.826 565.333 640.9 563.584
C 639.633 563.02 637.965 562.488 637.181 561.313 Z"
opacity="1" fill="rgb(205,111,140)" fill-rule="evenodd" />
<path d="
M 641.344 512.014
C 644.752 509.99 648.338 508.244 651.608 505.989
C 662.912 498.192 673.206 487.621 678.483 474.738
C 680.262 470.395 681.744 465.76 682.633 461.152
C 682.891 459.816 683.149 458.471 683.233 457.112
C 683.279 456.358 683.019 455.543 683.316 454.849
C 683.396 454.663 683.504 455.208 683.614 455.378
C 683.905 455.831 684.056 456.35 684.27 456.855
C 684.841 458.2 685.679 459.545 685.403 461.054
C 684.582 465.545 682.611 469.899 681.757 474.443
C 681.098 477.952 680.414 481.459 679.937 484.999
C 679.658 487.067 679.773 489.304 679.179 491.317
C 678.586 493.325 676.836 495.311 675.592 496.957
C 672.082 501.598 668.008 505.812 663.537 509.535
C 659.684 512.743 655.192 515.418 650.51 517.221
C 648.946 517.823 646.464 518.943 644.788 518.154
C 642.525 517.088 641.843 514.408 641.092 512.278
C 641.176 512.19 641.26 512.102 641.344 512.014 Z"
opacity="1" fill="rgb(206,110,138)" fill-rule="evenodd" />
<path d="
M 714.878 475.556
C 719.552 459.244 728.393 442.383 744.705 435.035
C 750.023 432.639 760.74 429.507 764.816 435.669
C 768.672 441.5 764.611 450.712 761.569 455.98
C 756.772 464.285 748.77 471.484 739.805 474.995
C 735.423 476.712 731.23 477.299 726.637 477.949
C 722.895 478.478 718.496 478.591 714.772 477.945
C 714.463 477.074 714.653 476.428 714.878 475.556 Z
M 732.802 463.752
C 732.772 463.86 732.741 463.968 732.71 464.075
C 734.251 464.315 737.333 462.081 738.637 461.328
C 744.333 458.038 750.776 452.377 752.846 445.909
C 750.124 445.9 747.215 447.874 745.115 449.411
C 739.964 453.181 735.581 457.968 732.802 463.752 Z"
opacity="1" fill="rgb(0,0,1)" fill-rule="evenodd" />
<path d="
M 719.378 551.368
C 720.7 551.187 722.249 552.015 723.547 552.262
C 726.395 552.805 729.31 553.195 732.2 553.415
C 740.761 554.066 749.999 553.067 758.328 551.029
C 767.326 548.828 775.678 545.254 783.743 540.733
C 786.027 539.452 788.322 538.057 790.409 536.473
C 791.493 535.65 792.744 534.233 794.061 533.878
C 796.536 535.633 798.364 538.354 801.076 539.82
C 797.716 544.548 790.608 547.742 785.552 550.252
C 770.633 557.656 753.104 560.778 736.653 557.821
C 731.061 556.816 723.804 555.14 719.378 551.368 Z"
opacity="1" fill="rgb(207,113,140)" fill-rule="evenodd" />
<path d="
M 726.915 507.292
C 732.306 506.052 737.894 506.232 743.276 504.634
C 760.427 499.541 776.054 489.101 786.181 474.159
C 791.195 466.759 794.362 458.449 796.037 449.704
C 796.592 446.807 796.804 443.943 796.797 440.997
C 796.794 440.048 796.651 439.105 796.639 438.162
C 796.634 437.781 796.324 437.076 796.7 437.021
C 797.256 436.942 797.333 437.95 797.628 438.428
C 798.531 439.89 799.458 441.653 799.918 443.316
C 800.37 444.956 799.248 446.871 798.775 448.412
C 797.366 452.999 795.803 457.608 794.189 462.121
C 791.752 468.941 789.274 475.953 785.559 482.197
C 777.631 495.525 764.51 506.598 749.101 509.631
C 742.59 510.913 732.224 512.331 726.915 507.292 Z"
opacity="1" fill="rgb(211,120,144)" fill-rule="evenodd" />
<path d="
M 732.802 463.752
C 735.581 457.968 739.964 453.181 745.115 449.411
C 747.215 447.874 750.124 445.9 752.846 445.909
C 750.776 452.377 744.333 458.038 738.637 461.328
C 737.333 462.081 734.251 464.315 732.71 464.075
C 732.741 463.968 732.772 463.86 732.802 463.752 Z"
opacity="1" fill="rgb(209,117,145)" fill-rule="evenodd" />
<path d="
M 817.746 544.584
C 852.776 547.366 885.044 517.982 893.915 485.276
C 894.284 484.615 895.409 486.106 895.816 486.635
C 897.087 488.291 897.665 490.558 897.843 492.602
C 898.327 498.178 896.188 503.716 893.72 508.608
C 885.923 524.069 873.322 536.727 857.711 544.347
C 848.131 549.023 837.589 550.965 827.102 548.615
C 824.583 548.05 822.124 547.154 819.804 546.022
C 819.44 545.845 817.672 545.043 817.746 544.584 Z"
opacity="1" fill="rgb(206,114,139)" fill-rule="evenodd" />
<path d="
M 827.931 497.085
C 832.798 480.58 838.302 464.255 843.641 447.893
C 845.062 443.54 846.506 439.181 847.818 434.794
C 848.637 432.056 849.271 429.02 850.631 426.493
C 851.611 425.814 852.959 425.873 854.119 425.792
C 856.153 425.65 858.185 425.446 860.209 425.202
C 869.313 424.105 878.514 423.125 883.129 413.942
C 883.86 412.488 884.635 410.974 884.852 409.356
C 891.344 414 890.803 423.139 884.104 427.327
C 878.498 430.832 871.353 431.065 864.951 431.69
C 862.642 431.915 859.944 431.76 857.737 432.479
C 856.61 434.243 856.301 436.628 855.69 438.615
C 854.537 442.363 853.216 446.062 852.119 449.827
C 848.743 461.416 844.656 472.8 841.149 484.349
C 840.265 487.262 839.441 490.191 838.416 493.058
C 837.939 494.39 837.755 495.841 836.819 496.963
C 835.522 498.517 833.266 499.545 831.428 500.272
C 830.322 500.71 829.224 501.481 828.007 501.508
C 827.521 499.993 827.601 498.621 827.931 497.085 Z"
opacity="1" fill="rgb(208,114,139)" fill-rule="evenodd" />
<path d="
M 865.88 380.623
C 867.044 377.667 867.703 374.495 868.797 371.506
C 870.136 367.851 871.921 363.812 872.588 359.983
C 873.553 360.689 874.384 361.423 875.153 362.36
C 879.954 368.203 875.787 375.601 873.815 381.734
C 871.12 381.358 868.46 381.085 865.723 381.194
C 865.775 381.004 865.828 380.813 865.88 380.623 Z"
opacity="1" fill="rgb(214,118,145)" fill-rule="evenodd" />

</svg>